<svg xmlns="http://www.w3.org/2000/svg" viewBox="0 0 1200 300" width="1200" height="300" role="img" aria-label="trajectoryos identity object">
<title>trajectoryos identity object</title>
<rect width="1200" height="300" fill="#fef8ec"/>
<defs><linearGradient id="gft" x1="0" y1="0" x2="1" y2="1"><stop offset="0%" stop-color="#c78f02"/><stop offset="100%" stop-color="#6e7788"/></linearGradient></defs><rect x="168.00" y="148.00" width="832.00" height="3.00" rx="2.00" fill="rgba(37,40,49,0.160)" opacity="1.00"/><polygon points="-19.05,37.00 19.05,59.00 19.05,15.00 -19.05,-7.00" fill="#036148" opacity="0.95"/><polygon points="-57.16,59.00 -19.05,81.00 -19.05,37.00 -57.16,15.00" fill="#565d6a" opacity="0.95"/><polygon points="-19.05,-7.00 19.05,15.00 -19.05,37.00 -57.16,15.00" fill="#c78f02" opacity="0.95"/><polygon points="12.12,79.00 50.23,101.00 50.23,57.00 12.12,35.00" fill="#036148" opacity="0.95"/><polygon points="-25.98,101.00 12.12,123.00 12.12,79.00 -25.98,57.00" fill="#565d6a" opacity="0.95"/><polygon points="12.12,35.00 50.23,57.00 12.12,79.00 -25.98,57.00" fill="#6e7788" opacity="0.95"/><polygon points="43.30,121.00 81.41,143.00 81.41,99.00 43.30,77.00" fill="#036148" opacity="0.95"/><polygon points="5.20,143.00 43.30,165.00 43.30,121.00 5.20,99.00" fill="#565d6a" opacity="0.95"/><polygon points="43.30,77.00 81.41,99.00 43.30,121.00 5.20,99.00" fill="#05a77d" opacity="0.95"/><polygon points="74.48,163.00 112.58,185.00 112.58,141.00 74.48,119.00" fill="#036148" opacity="0.95"/><polygon points="36.37,185.00 74.48,207.00 74.48,163.00 36.37,141.00" fill="#565d6a" opacity="0.95"/><polygon points="74.48,119.00 112.58,141.00 74.48,163.00 36.37,141.00" fill="#c78f02" opacity="0.95"/><g><circle cx="168.00" cy="150.00" r="104.00" fill="none" stroke="rgba(199,143,2,0.350)" stroke-width="1.60" opacity="1.00"/><animate attributeName="opacity" values="0.25;1.0;0.25" dur="13.9s" begin="0s" repeatCount="indefinite" /></g><circle cx="168" cy="150" r="3" fill="rgba(110,119,136,0.900)"><animate attributeName="opacity" values="0.35;0.95;0.35" dur="13.9s" begin="0s" repeatCount="indefinite" /></circle><text x="368" y="144" font-family="ui-monospace,Menlo,monospace" font-size="19" fill="rgba(37,40,49,0.900)">trajectoryos</text><text x="368" y="172" font-family="ui-monospace,Menlo,monospace" font-size="14" fill="rgba(37,40,49,0.500)">DUNG30N5 &#215; NOAERTH &#183; Web Application</text>
</svg>